<?xml version="1.0" encoding="UTF-8"?>
<svg xmlns="http://www.w3.org/2000/svg" version="1.1" viewBox="0 0 1453.17 691.71">
  <!-- Generator: Adobe Illustrator 30.6.0, SVG Export Plug-In . SVG Version: 2.1.4 Build 109)  -->
  <defs>
    <style>
      .st0 {
        fill: #a32600;
      }

      .st1 {
        fill: #050404;
      }

      .st2 {
        fill: #f7e7dc;
      }
    </style>
  </defs>
  <g id="black">
    <path class="st1" d="M1322.88,67.89c-7.15,3.65-15.46,4.41-22.9,2.72-5.31-1.21-7.42-5.13-7.59-10.33-.13-4-.94-8.29,1.96-11.64,5.97-6.9,16.13-9,24.61-6.24,6.48,2.11,8.25,7.41,8.55,13.68.22,4.58.49,9.2-4.62,11.81Z"/>
    <path class="st1" d="M1262.02,71.52c-6.73,2.97-14.45,4.09-21.63,2.69-5.91-1.15-7.71-5.53-8.34-10.66-.94-7.69,1.37-13.53,8.69-16.59,7.6-3.17,17.03-3.74,23.44,2.29,2.93,2.76,2.52,7.32,3.14,10.91.87,5.07-.52,9.24-5.31,11.36Z"/>
    <path class="st1" d="M1382.24,60.81c-6.49,2.95-14.21,3.91-21.27,2.74-5.91-.98-7.88-4.97-8.54-10.36-.77-6.32.35-11.91,6.3-15.2s13.43-4.33,20.08-2.49,8.18,6.78,8.57,12.93c.34,5.27.41,9.86-5.14,12.38Z"/>
    <path class="st1" d="M558.24,635.54c48.78-15.57,98.47-26.64,148.93-39.06l160.05-32.8,327.14-59.6,93.05-14.32-268.78,57.13-134.62,26.63-325.78,62.01Z"/>
    <polygon class="st1" points="1237.38 288.05 1178.84 315.32 1184.63 298.93 1153.1 297.46 1205.97 273.84 1199.64 291.04 1237.38 288.05"/>
    <polygon class="st1" points="717.8 398.89 659.82 393.17 694.99 382.72 687.87 367.2 742.66 372.52 710.62 384.07 717.8 398.89"/>
    <path class="st1" d="M1344.74,263.88c-5.66,11.15-21.98,13.86-31.03,6.01-4.38-3.8-4.48-11.91-2.89-16.68,1.61-4.83,6.85-6.22,10.73-8.47l-.84-10.62,9.25-1.75,1.32,10.91c4.48.47,10.37.65,12.77,5.23,1.96,3.75,3.07,10.69.7,15.36Z"/>
    <path class="st1" d="M1282.06,281.11c-6.7,5.49-15.81,6.74-23.57,4.09-5.21-1.77-7.06-5.78-7.83-10.71-1.29-8.28,2.41-14.65,11.27-16.5l-.75-10.54,9.34-2.39,1.76,11.01c3.97-.02,7.4.29,10.25,2.25,4.62,3.17,7.07,16.62-.46,22.78Z"/>
    <path class="st1" d="M1400.75,255.83c-6.28,9-20.74,10.6-28.71,3.64-4.51-3.94-4.56-12.43-2.42-17.14,1.95-4.29,6.13-5.7,9.95-7.48l-.45-11.16,8.87-1.28,1.34,10.81c3.93.6,9.28.39,11.71,4.44,2.72,4.54,3.38,12.89-.31,18.17Z"/>
    <path class="st1" d="M444.69,455.01c12.27,2.52,23.76-2.62,31.54-12.42,8.63-10.87,10.45-25.23,3.58-36.87,7.45,2.05,11.74,8.52,13.2,15.86,3.81,19.12-14.05,44.32-36.08,41.05-5.14-.76-9.89-3.19-12.24-7.63Z"/>
    <path class="st1" d="M595.32,252.1c-11.83-1.35-27.45,7.49-28.94,17.71l-2.05,14.06-54.03,11.59.72-10.32,43.28-9.04c.37-19.99,12.74-32.69,32.39-32.25,5.27.12,7.63,4.28,8.62,8.25Z"/>
    <path class="st1" d="M562.24,378.29c-6.63.24-12.81-4.47-12.43-11.93l1.86-36.82,10.72-1.67-2.23,36.52c-.31,5.05.06,9.68,2.08,13.9Z"/>
    <path class="st1" d="M570.09,202.57c-4.31,4.22-8.36,8.38-12.6,14.07l5.54-61.37,90.08-20.14,4.12-42.47,10.24-1.72-4.46,52.18-89.41,20.34-3.5,39.11Z"/>
    <path class="st1" d="M1210.66,100.98c3.6-6.61,8.82-11.26,16.35-11.34l20.94-.24-1.51-11.35,9.25-1.17,1.84,12.37,50.63-3.24-.92-11.53,8.64-.99,1.35,11.71,51.13-6.56-1.05-11.11,8.3-.93,1.48,10.72,35.43-6.14c7.59-1.32,14.19,4.11,16.34,11.32,3.75,12.57,8.88,24.09,16,35.05,9.64,14.85,10.7,31.53,4.19,48.02-5.08,12.88-8.39,25.88-9.12,39.82-.42,8.1-5.76,15.1-13.61,16.17l-9.86,1.34-3.41,27.89-5.04,26.64c-.42,2.24-1.64,3.88-3.51,4.76l-15.12,7.1-23.89,156.8c-2.74,18.01-10.69,34.38-20.78,48.89-18.44,26.53-46.61,40.79-77.77,46.67l-519.57,98.08-181.58,34.28c-27.65,5.22-54.44,4.8-80.87-4.57-14.33-5.08-26.94-12.33-40.22-19.69l-40.5-22.43c-28.57-12.78-59.46-14.59-89.16-4.87l-36.88,15.1-36.56,15.44c-22.53,7.82-45.55,11.77-69.47,9.21-27.5-2.95-53.03-13.86-73.35-32.48-31.72-29.06-47.69-74.1-58.69-115.48-18.21-68.5-29.34-151.99-23.8-222.61,3.65-46.48,15-94.38,39.78-134.19,22.46-36.09,57.38-61.75,98.77-72.15s88.61-6.29,130.21,6.17l48.4,14.5c84.48,25.3,122.18,11.13,193.64-32.46,44.36-27.06,90.69-50.88,142.77-57.37,30.4-3.79,69.8,1.49,87.81,26.58,8.88,12.37,10.21,28.39,1.64,40.99-5.02,7.38-12.34,11.7-20.18,15.88-21.72,11.58-38.31,30.59-44.07,54.7-3.22,13.48-2.37,27.31,3.73,39.2,5.31,10.35,14.76,15.12,26.55,13.02l384.44-68.33,85.16-15.52c2.33-.79,4.12-3.76,5.3-4.99,1.46-1.52,1.7-1.67,2.5-2.98,4.27-6.95,7.2-12.33,7.94-13.69Z"/>
    <path class="st1" d="M519.78,432.29c10.17,2.25,20.78,2.83,31.53.37l38.13-8.76c21.71-6.25,39.4-20.77,48.48-41.5,5.02-11.45,6.93-23.09,7.65-35.63l6.35-110.22c.73-12.72-1.39-25.14-8.24-34.91,13.09,5.55,18.4,20.68,18.54,35.93l92.49-15.88,8.15,88.9c2.5.33,4.44-.05,6.22-.94l-8.32-89.26,51.34-8.77,8.11,86.7c.09,1.09.84,1.33,1.75,1.06l4.6-.86-8.11-88.03,53.7-9.62,8.09,84.49c-.42,1.47.3,2.39,1.7,2.16,1.89-.31,3.5-.25,4.91-1.22l-8.36-86.57,59.02-10.69,8.57,85.58c2.29.06,4.2-.26,6.52-1.2l-8.06-85.71,63.53-11.18,4.92,54.12-20.94,3.93c-1.07-.31-1.42.86-1.02,1.33s1,.72,1.96.51l19.98-4.32,3.37,28.56c2.88-.34,4.72-.44,6.38-1.3l-8.05-84.02,69.57-12.5,5.5,53.14-66.77,12.54v1.77s66.72-12.69,66.72-12.69l3.07,27.91c1.91.17,3.97-.4,6.84-1.02l-8.2-82.91,72.6-13.26,1.22,9.66-65.1,11.56c-1.06.19-1.35.64-1.05,1.35s1.04.46,1.86.31l38.04-6.83,26.18-5.07,1.83,15.31-70.32,12.9c.11.37.2.92.14,1.54l70.37-12.69,2.19,23.83-69.17,13.42c-1.05.2-1.19.92-1.02,1.3.25.57.87.61,1.93.4l68.54-13.59,2.97,27.74c2.26.1,4.67-.29,7.67-1.31l-2.33-23.79c-.16-1.69-.83-4.05.68-4.77,1.08-.52,2.94-.07,4.23-.45l2.66-.78c.73-.21.56-.95,0-.96l-2.47-.04-2.12.14c-.78.05-2.59,1.1-3.29.8s-.5-2.11-.57-2.83l-1.95-20.51,40.3-11.39,62.86-20.23-.84-1.35-52.32,16.53-50.02,14.48-1.77-15.42,70.8-21.68c6.5,5.58,15.17,4.28,20.2-1.88,4.54-5.56,3.8-14.9-2.27-19.54-5.69-4.35-13.76-2.92-17.96,1.58-4.77,5.1-5.2,12.29-1.17,18.63l-69.83,21.07c-.59-5.36-1.06-9.88-3.33-14.61l-453.48,80.87c-15.67-1.31-27.53-11.44-33.27-25.73-6.71-17.11-6.3-35.63-.28-53.36,7.78-22.94,24.18-41.41,44.72-54.05l16.83-10.36c7.52-6.45,8.19-17.84,2.66-26.11-5.74-8.58-14.51-14.1-24.34-17.56-41.54-14.6-94.82,1.93-133.94,21.1-37.71,18.47-71.33,43.51-110.04,60.9-48.08,21.59-94.19,20.13-144.15,5.13l-48.42-14.53c-39.64-11.9-84.02-18.13-124.4-8.47-29.54,7.07-56.05,22.07-76.19,44.75-36.51,41.12-50.95,100.66-54.08,154.98-2.85,49.41.86,98.12,9.4,146.9,8.41,48.02,21.68,106.21,46.82,147.1,21.53,35.01,58.18,55.72,99.56,54.83,39.49-.85,76.78-18.77,109.05-41.01l53.89-37.15,72.09-49.78c15.47-10.68,31.39-19.05,49.4-26.79-2.62,8.95-7.1,15.93-12.55,22.61l-33.62,41.22c-13.68,16.77-15.44,40.26-1.91,57.33,10.38,13.1,40.91,30.75,57.98,38.13,23.91,10.33,50.24,13.75,76.34,8.83l352.07-66.46,85.25-16.03,282.25-53.39c37.24-10.15,64.55-39.66,73.27-77.15l7.73-49.44,16.98-118.69c.77-5.36,4.52-8.33,9.42-8.88,8.36-.94,15.99-5.12,20.82-11.88,3.1-4.33,2.81-9.44,3.42-14.6l2.97-25.01,12-1.85c14.97-2.31,9.52-19.12,14.52-34.72l8.02-25c4-12.46,2.04-24.92-4.86-36.16-7.05-11.49-13.26-22.97-16.57-36.15-1.84-7.32-8.12-11.12-15.68-9.6-59.82,12.04-120.09,18.46-181.23,18.36-5.69-.01-9.98,1.63-12.74,6.62l-8.88,16.06c-10.71,10.12-19.24,17.57-31.69,22.61-.69.28.29,2.38.9,2.68.68.33,1.99.83,3.4.35,18.12-6.21,32.15-19.82,39.55-37.29,2.14-5.04,5.06-6.32,10.48-6.33,61.04-.13,121.28-6.42,180.99-18.35,5.06-1.01,8.77,1.2,9.97,5.81,3.31,12.72,9.02,23.91,15.71,35.17,10.83,18.22,9.19,28.16,1.46,48.01-4.36,11.2-6.43,22.75-7.26,34.66-.4,5.69-4.53,8.09-9.7,8.73-46.45,5.71-91.95,13.68-137.58,24.06l-45.34,11.64c-3.92,1.01-7.1-.28-9.61-3.08-11.87-13.26-29.07-18.7-46.74-15.14l-179.84,36.17-176.11,34.82-167.54,32.64-2.31,28.57c-1.24,15.29-6.97,29.51-16.2,41.81-10.14,13.5-24,22.85-40.22,27.74l-44.23,9.67c-10.66,2.33-26.58-1.01-34.89-9.62Z"/>
    <circle class="st1" cx="1375.51" cy="112.8" r="13.71"/>
    <circle class="st1" cx="1314.61" cy="120.7" r="13.88"/>
    <rect class="st1" x="1277.81" y="136.26" width="71.56" height="2.7" transform="translate(13.54 370.68) rotate(-16.14)"/>
    <circle class="st1" cx="1381.74" cy="190.33" r="13.69"/>
    <path class="st1" d="M1319.53,187.13c-7.83,2.1-13.18,10.17-10.66,18.45,1.58,5.19,6.3,8.52,10.71,9,5.5.59,10.34-1.64,13.41-6.21,2.63-3.91,3.41-8.66,1.75-13.09-1.38-3.67-4.9-7.9-9.16-8l.3-.93,21.23-1.47-22.07-.35-29.17,1.01c8.43,4.58,16.12-1.03,23.66,1.59Z"/>
    <path class="st1" d="M1283.71,188.66l11.43-.61c-4.67-2.86-9.39-.95-14.16-.75l-10.09.42c3.72,2.67,7.92,1.2,12.82.94Z"/>
    <path class="st1" d="M1255.42,191.14l15.77-1c-3.23-1.06-6.45-1.85-10.04-1.48l-71.13,7.26.02,1.5,65.39-6.28Z"/>
    <rect class="st1" x="1019.39" y="194.91" width="66.28" height="2.86" transform="translate(-18.15 191.45) rotate(-10.3)"/>
    <circle class="st1" cx="1054.1" cy="209.73" r="9.69"/>
    <path class="st1" d="M1273.02,219.87c4.06-7.51.74-16.34-6.65-19.19-7.17-2.76-15.44,1.13-17.87,8.99-2.21,7.14.72,14.78,7.49,17.15,6.23,2.18,13.42-.28,17.03-6.96Z"/>
    <path class="st1" d="M959.73,214.66l48.49-9.11c-.1-.47-.47-1.03-.76-1.44l-52.31,9.48c-.04.71.91,1.73,1.4,1.64l3.18-.57Z"/>
    <path class="st1" d="M1229.48,210.65l-31.82,4.47-15.64,2.62.03,1.57,46.51-6.99,15.52-2.28c-.02-.16-.29-.54-.62-.58-4.34-.44-9.17.52-13.97,1.19Z"/>
    <path class="st1" d="M914.2,223.2l23-4.36c-8.76-1.48-16.59,1.58-25.14,2.65.19,1.16,1.1,1.9,2.14,1.7Z"/>
    <path class="st1" d="M908.91,224.17c-2.33-1.97-3.63-1.59-5.3-1.22l-19.76,4.33c.01.21.09.78.69,1.2l24.37-4.31Z"/>
    <circle class="st1" cx="912.78" cy="236.3" r="9.49"/>
    <polygon class="st1" points="708.69 229.63 710.9 321.15 717.11 320.58 708.69 229.63"/>
    <path class="st1" d="M872.53,230.51c.51-.09.74-.94.42-1.29l-49.26,8.73c.06.52.29,1.08.85,1.52l48-8.95Z"/>
    <path class="st1" d="M958.66,243.03l31.44-5.86c-1.81-1.77-3.82-1.65-6.29-1.14l-32,6.63c2.01,1.47,4.51.82,6.86.38Z"/>
    <path class="st1" d="M811.8,241.99c.39-1.56-.57-1.91-1.8-1.68l-44.09,8.22.69,1.17,45.2-7.71Z"/>
    <path class="st1" d="M942.09,246.1c.12-.6.13-1.24-.61-1.9l-55.79,10.93c.16.52.45,1,.9,1.44l55.5-10.47Z"/>
    <circle class="st1" cx="790.91" cy="259.55" r="9.44"/>
    <path class="st1" d="M751.07,252.96c-4.12-1.25-8.44-.35-12.96.53l-25.21,4.92c.08.44.47.96.7,1.27l37.46-6.73Z"/>
    <path class="st1" d="M874.76,258.83c.34-1.4-.49-1.66-1.7-1.42l-47.08,9.24.06,1.71,48.72-9.52Z"/>
    <path class="st1" d="M704.21,261.25c-.14-.6-1.2-1.23-1.78-1.12l-41.45,7.49.07,1.71,43.15-8.08Z"/>
    <path class="st1" d="M807.07,272.07c.16-.74-.01-1.29-.59-1.82l-38.49,7.42.06,1.63,39.02-7.23Z"/>
    <path class="st1" d="M759.08,281.06c.19-.72.08-1.26-.59-1.84l-42.56,8.36.69,1.13,42.46-7.65Z"/>
    <path class="st1" d="M706.79,290.89c.36-1.47-.57-1.81-1.79-1.56l-45.13,9.03c.07.41.35.87.71,1.2l46.21-8.67Z"/>
    <circle class="st1" cx="1253.68" cy="126.24" r="5.02"/>
    <circle class="st1" cx="1314.16" cy="121.38" r="5.39"/>
    <circle class="st1" cx="1381.66" cy="190.13" r="5.23"/>
    <circle class="st1" cx="1260.99" cy="213.51" r="5.52"/>
    <circle class="st1" cx="1375.29" cy="112.94" r="5.28"/>
    <circle class="st1" cx="1321.73" cy="200.47" r="5.72"/>
    <path class="st1" d="M287.37,501.24c7.47,2.51,16.15,3.14,24.62,1.87,16.73-2.51,32.73-5.91,48.82-10.89,31.07-9.61,52.84-36.2,54.47-68.9l4.37-87.67c.48-9.71-1.99-18.63-6.68-26.31,12.54,5.03,17.93,19.54,17.27,33.16l-3.92,80.87c-.86,17.75-5.06,34.4-15.69,48.72-10.23,13.78-24.46,23.77-40.99,28.94-16.92,5.29-33.87,9.1-51.48,10.65-11.81,1.04-23.4-2.26-30.79-10.44Z"/>
    <path class="st1" d="M407.86,304.72c-3.95-2.26-8.08-4.02-12.94-4.9,15.81-10.52,25.2-26.66,26.38-45.43l4.12-65.86c.73-11.58-2.77-22.77-9.44-31.16,14.3,5.2,21.02,24.67,20.02,40.1l-4,61.93c-1.17,18.15-9.8,34.92-24.15,45.31Z"/>
    <path class="st1" d="M367.62,207.38c-5.71.5-11.37,1.51-16.93,3.66-7.56,2.65-12.46,9.08-13.1,17.15l-3.19,40.42-55.07,12.16.65-10.14,44-9.75,3.17-39.27c.82-10.16,8.54-17.64,18.06-19.91,4.82-1.46,9.58-2.58,14.39-1.85s7.07,3.77,8.03,7.53Z"/>
    <path class="st1" d="M328.17,446.01c-6.51.44-12.48-4.11-12.15-11.89l1.84-42.94,10.59-1.85-2.2,44.08c-.22,4.45.58,8.45,1.91,12.61Z"/>
    <path class="st1" d="M360.97,344.96c-2.16-.17-4.53-.35-7.05.17l-27,5.51.2-9.68,20.15-4.07c6.22-1.26,11.66,2.63,13.7,8.07Z"/>
    <path class="st1" d="M108.04,556.17c9.56,3.33,20.48,3.47,30.75,1.05l38.13-8.99c19.39-5.86,36.09-18.04,46.02-35.85,6.61-11.85,10.68-24.95,11.42-38.82l7.96-149.1,4.69-90.91c.73-14.12-3.38-27.48-11.13-38.19,8.67,3.58,14.22,11.6,17.91,20.42,3.7,9.87,4.39,19.73,3.82,30.58l-11.91,227.79c-2.03,38.76-20.95,71.01-58.36,82.59-14.24,4.41-28.34,7.81-43.2,9.71-12.69,1.62-28.99-.96-36.1-10.27Z"/>
    <path class="st1" d="M181.82,413.3c-14.73,11.29-32.95,17.41-51.94,16.61-8.83-1.27-18.1-3.36-23.2-10.48,25.79,7.41,60.13-2.81,75.95-25.28l-.81,19.15Z"/>
    <path class="st1" d="M148.01,499.69c-6.43,0-12.49-4.94-12.27-11.93l.96-30.02,10.51-1.74-1.3,32.47c-.16,4.09,1.13,7.75,2.09,11.23Z"/>
    <path class="st1" d="M187.28,246.94c-15.81.29-32.17,6.18-33.11,22.63l-4.46,77.78c-.37,6.4.07,11.96,1.55,17.45-7.05-.47-12.33-6.82-11.94-14.7l4.1-84.34c.87-17.86,16.72-27.29,34.34-26.97,5.19.09,8.17,3.75,9.52,8.15Z"/>
  </g>
  <g id="red">
    <path class="st0" d="M1206.7,108.02c-1.4,3.23-9.19,14.96-12.99,14.84l-83.94,15.3-384.44,68.33c-11.79,2.09-21.24-2.67-26.55-13.02-6.1-11.89-6.95-25.73-3.73-39.2,5.76-24.11,22.35-43.13,44.07-54.7,7.84-4.18,15.16-8.49,20.18-15.88,8.57-12.6,7.24-28.63-1.64-40.99-18.01-25.08-57.4-30.37-87.81-26.58-52.08,6.49-98.41,30.31-142.77,57.37-71.46,43.59-109.16,57.77-193.64,32.46l-48.4-14.5c-41.6-12.46-87.94-16.8-130.21-6.17s-76.3,36.06-98.77,72.15c-24.78,39.81-36.13,87.71-39.78,134.19-5.54,70.63,5.59,154.12,23.8,222.61,11,41.38,26.97,86.42,58.69,115.48,20.32,18.62,45.85,29.53,73.35,32.48,23.92,2.56,46.95-1.39,69.47-9.21l36.56-15.44,36.88-15.1c29.7-9.71,60.59-7.91,89.16,4.87l40.5,22.43c13.29,7.36,25.89,14.61,40.22,19.69,26.43,9.36,53.22,9.79,80.87,4.57l181.58-34.28,519.57-98.08c31.17-5.88,59.33-20.14,77.77-46.67,10.09-14.51,18.04-30.89,20.78-48.89l23.89-156.8,15.12-7.1-25.84,168.06c-3.1,19.93-11.94,38.11-23.56,54.33-18.36,25.63-45.48,43.3-76.6,49.2l-123.72,23.42-306.75,58.17-280.06,52.87c-35.65,6.73-70.55,4.15-103.57-11.32l-37.32-20.53c-12.87-7.08-24.77-14.38-38.62-19.39-34.81-12.58-63.76-4.39-95.94,9.91l-40.89,18.16c-29.72,11.01-60.93,15.43-92.22,9.98-41.47-7.23-76.17-31.49-97.8-67.21-11.85-19.58-20.49-39.62-27.48-61.57C12.05,476.97-1.14,391.19.08,318.49c.97-58.19,12.57-119.18,43.33-168.54,27.15-43.56,69.92-72.51,120.5-81.7,57.55-10.46,106.9,2.44,161.45,19.89s96.8,24.78,148.8-1.63c19.83-10.07,38.1-21.19,57.28-32.65,44.51-26.59,92.27-48.61,144.49-53.25,31.93-2.84,68.22,4.15,89.63,28.23s17.04,60.9-7.89,76.3l-19.75,12.2c-20.57,12.71-36.42,42.39-27.69,65.72,2.57,6.86,8.4,10.06,16.14,8.68l415.76-73.9,64.54-9.8Z"/>
    <path class="st0" d="M1119.42,485.67c-11.09,1.37-20.7-7.28-19.94-18.56l6.18-91.18c.8-11.79,9.36-22.04,19.99-25.59l23.41-4.6c5.09-1,10.41.6,14.02,4.09,3.05,2.95,6.02,8.37,5.64,13.86l-6.38,92.2c-.79,11.47-9.5,21.24-19.63,24.88-7.62,2.74-14.61,3.82-23.28,4.89ZM1140.45,453.41l5.42-78.8c.15-2.24-1.12-3.86-2.11-4.64-3.21-2.51-15.38-.45-16,8.41l-5.37,77.8c-.15,2.21,1.01,4.24,2.32,5.07,3.86,2.46,15.23-.39,15.74-7.84Z"/>
    <polygon class="st0" points="1278.37 455.22 1255.35 459.47 1264.09 324.68 1287.12 320.45 1284.16 372.64 1307 317.05 1331.17 312.35 1303.17 379.42 1324.67 446.5 1300.91 451.31 1283.12 396.62 1278.37 455.22"/>
    <path class="st0" d="M763.31,554.01c-8.19,2.92-16.31,4.17-24.26,4.9-10.27.95-18.69-6.33-18.25-16.58l1.22-28.07,22.42-4.52-1.16,20.43c.27,3.71,3.04,6.13,6.71,5.31,5.75.06,10.24-3.76,10.62-9.44l.97-14.64c.24-3.65-1.33-6.47-4.34-8.23l-21.42-12.49c-6.74-3.93-11.45-10.13-10.97-18.33l1.35-22.98c.88-15.08,11.81-26.82,26.57-29.23l16.25-2.66c5.16-.84,10.39,1.06,13.95,4.44,3.3,3.14,5.32,8.29,5.02,13.46l-1.37,23.5-21.98,4.14.89-16.69c.04-2.04-.63-3.86-2.08-4.82-3.44-2.28-12.97.14-14.38,6.02-1.15,4.8-1.19,9.87-1.11,14.85.05,3.24,2.55,5.53,5.07,7.04l21.88,13.12c5.94,3.56,9.81,9.67,9.38,16.88l-1.76,29.62c-.65,10.91-8.39,21.08-19.21,24.94Z"/>
    <path class="st0" d="M814.6,544.37c-11.36.92-19.39-7.44-18.83-17.97l1.44-26.82,22.12-4.16-.9,19.92c-.09,2.01.76,3.87,1.78,4.66,1.47,1.14,4.06.84,5.72.66,5.75-.65,9.49-3.76,9.88-9.44l1.02-14.77c.2-2.94-1.04-5.77-3.56-7.27l-22.5-13.42c-6.64-3.96-10.98-10.26-10.45-18.36l1.64-24.98c.76-11.59,8.88-21.57,19.94-24.95l21.91-4.36c10.49-2.09,19.73,6.62,19.18,17.37l-1.24,24.35-21.74,3.98.8-17.31c.08-1.68-.6-3.29-1.38-4.01-3.42-3.17-14.57.44-15,5.32l-1.18,13.6c-.34,3.94,1.55,7.17,4.83,9.04l20.99,11.93c6.72,3.82,10.83,10.02,10.32,18.17l-1.8,28.71c-.75,11.88-9.35,22.28-20.66,25.95-7.1,2.31-14.35,3.53-22.33,4.18Z"/>
    <path class="st0" d="M542.69,569.56l1.72-23.9,22.59-4.28-2.03,30c-.77,11.46-8.28,21.87-19.02,25.87-8.1,3.02-16.27,4.32-24.9,5.06-10.91.93-20.12-7.24-19.39-18.73l5.9-92.79c.75-11.81,9.14-22.24,19.7-25.89l24.01-4.95c10.38-2.14,19.78,6.19,19.29,16.83l-1.32,28.77-22.61,4.58,1-21.45c-.13-1.84-.96-3.51-2.16-4.24-4.33-2.65-15.05.95-15.52,8.09l-5.27,79.83c-.14,2.09,1.06,4.01,2.07,4.83,3.6,2.92,15.38.28,15.95-7.63Z"/>
    <path class="st0" d="M1203.05,446.05c3.07,3.41,15.58.43,16.12-6.66l1.86-24.67,22.43-4.18-2.08,29.33c-.85,11.95-8.57,22.89-20.05,26.69-7.96,2.63-15.87,4.17-24.3,4.72-10.39.68-19.31-7.34-18.6-18.3l5.9-91.38c.78-12.01,9.35-22.61,20.23-26.37l22.39-4.65c11.26-2.34,20.85,6.56,20.23,17.95l-1.47,26.96-22.5,4.3,1.14-20.38c-.02-1.8-.75-3.48-1.64-4.16-3.89-2.94-15.39.42-15.87,7.32l-5.46,78.7c-.13,1.93.81,3.86,1.66,4.81Z"/>
    <path class="st0" d="M936.14,496.8c3.17,3.24,15.27.71,15.86-6.55l2-24.59,22.56-4.38-2.27,30.55c-.88,11.86-9.66,22.17-20.91,25.75-7.53,2.39-14.62,3.63-22.55,4.47-10.14,1.07-20.07-6.87-19.36-18.07l5.87-92.3c.78-12.23,9.73-22.49,20.69-26.04l22.94-4.44c10.79-2.09,19.55,6.52,18.98,17.38l-1.44,27.43-22.61,4.34,1.26-18.93c.15-2.28-.3-4.4-1.95-5.62-4.09-3.01-15.11.82-15.55,7.45l-5.26,78.78c-.13,1.88.78,3.83,1.73,4.81Z"/>
    <polygon class="st0" points="629.78 557.66 628.54 580.55 578.89 590.3 587.19 454.33 610.13 449.97 602.9 562.69 629.78 557.66"/>
    <polygon class="st0" points="894.28 527.94 871.22 532.53 879.97 397.3 902.73 392.97 894.28 527.94"/>
    <path class="st0" d="M896.45,372.46c-5.27.78-11.01,1.28-14.48-3-3.05-3.76-2.75-9.11-1.86-13.93l11.2-2.01c-.43,2.66-1.06,6.76,1.32,8.23,3.11,1.91,7.08-.26,8.27-2.96,1.31-2.97,1.74-7.7-1.72-9.4l-10.68-5.26c-5.64-2.78-7.19-7.7-7.13-13.54.12-10.54,6.87-18.17,17.53-19.35,4.58-.51,10.02-1.06,13.34,3.05,2.97,3.67,2.81,9.27,1.53,13.49l-10.8,1.84c.55-2.69.68-6.39-1.42-7.52-3.45-1.86-6.86.63-7.6,3.01-1.08,3.47-.72,7.3,2.62,8.81l9.51,4.32c6.13,2.79,7.77,7.95,7.7,14.11-.12,10.52-6.19,18.47-17.33,20.12Z"/>
    <path class="st0" d="M1122.51,329.53c-5.24.96-11.36,1.82-14.96-2.66-3.04-3.78-2.45-9.16-1.9-13.86,3.94-1.03,7.21-1.96,11.31-1.74-.29,2.25-.84,6.27.73,7.43,3.7,2.72,8.22-.53,9.08-3.87,3.03-11.65-11.7-9.83-16.85-16.4-5.46-6.96-3.66-18.38,2.59-24.35,4.77-4.55,11.22-5.58,17.5-5.48,5.03.08,9.32,3.51,9.42,8.39l.16,7.54-11.46,2.07c.65-2.76.51-6.44-1.68-7.4-3.63-1.58-6.77,1.4-7.37,3.92-.95,3.92.32,6.63,3.93,8.4l9.93,4.84c5.18,2.53,5.86,6.96,6.07,11.99.44,10.94-5.1,19.09-16.49,21.18Z"/>
    <path class="st0" d="M943.58,348.27l.36-7.19,11.8-2.31c-.33,4.64.04,9.46-1.52,13.93-4.25,12.15-22.89,14.98-29.05,10.14-2.49-1.96-4.11-5.53-3.9-9.46l1.69-30.91c.59-10.82,7.76-17.54,18.23-19.07,5.33-.78,11.47-1.01,14.38,4.56,2.18,4.18,1.47,9.38,1.07,14.16l-11.75,2.2c.2-3.07,1.19-6.6-.52-9.24-1.19-1.83-4.53-1.33-6.21-.31-1.25.76-2.86,2.31-2.95,4.83l-1.19,32.72c-.08,2.26,4.37,2.01,5.73,1.35,1.68-.82,3.67-2.31,3.83-5.4Z"/>
    <path class="st0" d="M767.11,374.62l-1.36,21.75-12.19,2.21,3.34-59.28,22.09-3.78c6.12-1.05,11.25,3.74,11.1,9.85l-.55,12.83c-.3,7.01-5.33,13.22-12.12,14.5l-10.3,1.93ZM776.62,360.74c2.06-4.47,1.53-9.47.96-13.63-3.51-1.05-6.73-.34-9.46,1l-.5,15.84c2.52.14,7.54-.07,9-3.22Z"/>
    <polygon class="st0" points="869.5 351.59 855.18 354.51 854.41 368.93 871.63 366.04 871.02 376.33 841.4 381.8 844.8 322.48 873.56 317.1 873.55 327.59 856.5 330.89 855.69 343.71 870.03 341.29 869.5 351.59"/>
    <polygon class="st0" points="1068.45 338.78 1056 341.26 1058.91 293.12 1047.77 294.55 1048.38 283.89 1082.21 277.61 1082.01 287.74 1071.29 290.01 1068.45 338.78"/>
    <polygon class="st0" points="1027.68 346.64 1015.66 348.88 1018.55 300.4 1007.14 302.32 1007.64 291.76 1042.02 285.14 1041.5 295.82 1030.54 297.98 1027.68 346.64"/>
    <path class="st0" d="M1089.32,295.89l3.34-8.59c-.68-.94-2.85-.6-3.55-.32l.48-10.89,10.13-1.82c1.19,9.97-2.32,22.92-10.41,21.62Z"/>
    <path class="st0" d="M479.8,405.72c6.87,11.64,5.05,26-3.58,36.87-7.78,9.8-19.27,14.94-31.54,12.42-8.94-3.14-15.39-9.58-16.87-19.44-2.61-17.34,8.28-34.56,25.27-38.84,10.7-2.7,20.31.93,26.72,9Z"/>
    <path class="st0" d="M657.22,92.65l-4.12,42.47-90.08,20.14-5.54,61.37c4.24-5.69,8.29-9.85,12.6-14.07,20.75-15.25,58.34-22.65,73.59-.92,6.86,9.77,8.98,22.2,8.24,34.91l-6.35,110.22c-.72,12.54-2.63,24.18-7.65,35.63-9.08,20.73-26.77,35.25-48.48,41.5l-38.13,8.76c-10.75,2.47-21.36,1.88-31.53-.37-3.17-3.28-14.19-4.64-20.5-20.21-3.6-8.64-5.2-18.01-4.67-27.69l2.85-52.23,54.53-11.82-.31,9.19-1.86,36.82c-.38,7.46,5.8,12.17,12.43,11.93,14.71-.53,27.71-6.86,28.62-22.04l5.78-95.94c.2-3.3-.68-5.65-1.32-8.21-.99-3.97-3.35-8.13-8.62-8.25-19.65-.44-32.02,12.26-32.39,32.25l-43.28,9.04-10.6,1.4,13.17-169.82,144.04-33.58-.41,9.51Z"/>
    <path class="st0" d="M415.99,157.38c6.67,8.39,10.16,19.58,9.44,31.16l-4.12,65.86c-1.18,18.77-10.57,34.91-26.38,45.43,4.85.88,8.99,2.64,12.94,4.9l5.1,4.63c4.69,7.68,7.17,16.6,6.68,26.31l-4.37,87.67c-1.63,32.7-23.4,59.29-54.47,68.9-16.09,4.98-32.09,8.38-48.82,10.89-8.47,1.27-17.15.64-24.62-1.87-9.51-3.2-17.29-10.14-21.63-19.47-4.79-11.38-6.2-22.99-5.58-35.38l2.65-52.93,55.3-11.94-.25,9.65-1.84,42.94c-.33,7.78,5.64,12.33,12.15,11.89,17.57-1.17,30.08-6.85,31.08-26.61l3.22-63.91c.2-3.95-.31-7.37-1.49-10.53-2.04-5.44-7.48-9.33-13.7-8.07l-20.15,4.07-10.44,1.8,2.75-50.68,32.76-7.52c7.93-1.82,12.3-9.45,13.57-17.4l3.24-51.7c.2-3.19-.76-5.63-1.38-8.07-.96-3.75-3.43-6.83-8.03-7.53s-9.57.39-14.39,1.85c-9.53,2.27-17.24,9.76-18.06,19.91l-3.17,39.27-44,9.75-10.68,2.02,2.79-47.25c.76-12.77,3.66-24.86,10.13-35.85,10.36-17.6,27.28-30.19,47.16-34.77l35.74-8.23c18.11-4.17,39.47-3.51,50.86,10.83Z"/>
    <path class="st0" d="M235.87,195.36c7.74,10.71,11.86,24.07,11.13,38.19l-4.69,90.91-7.96,149.1c-.74,13.87-4.81,26.97-11.42,38.82-9.93,17.81-26.63,29.99-46.02,35.85l-38.13,8.99c-10.26,2.42-21.19,2.28-30.75-1.05-7.39-2.57-13.89-7.56-18.66-14.1-7.18-12.04-10.7-25.47-10.21-39.66l1.47-41.92,56.17-12.44-.1,9.69-.96,30.02c-.22,7,5.84,11.93,12.27,11.93,16,.02,29.8-8.56,30.63-24.53l3.19-61.86.81-19.15c-15.82,22.47-50.17,32.69-75.95,25.28-9.75-3.98-17.43-10.69-21.39-21.35-3.56-8.98-5.4-18.55-4.81-28.62l5.92-101.86c2.04-35.08,29.95-68.97,65.17-76.7l35.19-7.73c8.9-1.96,17.98-2.08,26.87-.34,9.24,1.39,16.45,6.1,22.23,12.54ZM151.26,364.81c17.03,1.14,32.33-10.29,33.31-29.02l4.06-77.33c.22-4.2-.22-7.87-1.35-11.51-1.36-4.39-4.33-8.05-9.52-8.15-17.62-.32-33.47,9.11-34.34,26.97l-4.1,84.34c-.38,7.88,4.89,14.23,11.94,14.7Z"/>
    <path class="st0" d="M1063.16,495.82l-10.18-49.09c-2.64.21-4.81.54-7.03,1.77l-3.33,51.28-22.77,4.16,8.67-134.65,42.38-7.86c5.09-.94,10.31.48,13.9,3.61,3.28,2.86,5.84,8.12,5.53,13.42l-2.16,36.97c-.56,9.53-5.43,17.71-13.31,23.23l11.83,52.55-23.52,4.6ZM1058.1,423.84c4.12-.74,7.05-4.08,7.33-8.03l1.77-25.42c.13-1.88-.66-3.72-1.94-4.64-.77-.56-2.15-1.12-3.69-.83l-11.54,2.18-2.39,38.62,10.46-1.88Z"/>
    <path class="st0" d="M974.12,356.83c-6.61-.3-10.66-5.33-10.32-11.38l1.83-32.61c.7-12.42,12.57-18.58,25.11-17.95,5.98.3,10.05,5.09,9.72,10.88l-1.91,33.42c-.66,11.6-11.84,18.21-24.43,17.64ZM986.9,338.76l1.17-31.46c.1-2.57-5.75-1.75-7.26-.6s-3.25,3.33-3.35,6.14l-1.07,31.36c-.09,2.68,5.4,1.98,6.92.96s3.47-3.19,3.59-6.41Z"/>
    <path class="st0" d="M685.66,543.75l-20.95,4.14-4.92,26.32-23.38,4.45,29.81-139.9,31.59-6.12,12.69,131.17-23.31,4.66-1.54-24.72ZM669.1,525.02l15.07-2.8-3.49-52.78c.57-.67.63-2.64-.13-2.87-1.25-.39-1.08,2.2-1.21,2.93l-10.24,55.52Z"/>
    <path class="st0" d="M821.08,385.85l-5.39-21.11c-1.52-.38-4.27-.21-5.62.85l-1.3,22.39-12.58,2.32,3.44-59.29,22.34-3.81c5.97-1.02,11.13,2.58,11.53,8.62l-.36,12.57c-.12,4.32-3.16,7.66-6.06,10.53l6.6,24.16-12.6,2.76ZM819.74,351.74c2.5-3.9,1.97-9.04,1.16-13.05-3.51-.99-6.67-.36-9.73.72l-.7,15.21c2.56.16,7.33.16,9.27-2.88Z"/>
  </g>
  <g id="white">
    <path class="st2" d="M1165.21,158l-1.22-9.66-72.6,13.26,8.2,82.91c-2.87.62-4.94,1.19-6.84,1.02l-3.07-27.91-66.72,12.69v-1.77s66.77-12.54,66.77-12.54l-5.5-53.14-69.57,12.5,8.05,84.02c-1.66.86-3.5.96-6.38,1.3l-3.37-28.56.02-1.46-4.92-54.12-63.53,11.18,8.06,85.71c-2.31.94-4.23,1.26-6.52,1.2l-8.57-85.58-59.02,10.69,8.36,86.57c-1.42.97-3.02.91-4.91,1.22-1.4.23-2.11-.69-1.7-2.16l-8.09-84.49-53.7,9.62,8.11,88.03-4.6.86c-.91.27-1.66.04-1.75-1.06l-8.11-86.7-51.34,8.77,8.32,89.26c-1.78.89-3.72,1.27-6.22.94l-8.15-88.9-42.3,7.15c-2.61.8-5.27-2.93-7.72-2.56s-4.49,2.66-6.36,4.64l-36.11,6.66c-.14-15.25-5.45-30.39-18.54-35.93-15.25-21.73-52.84-14.32-73.59.92l3.5-39.11,89.41-20.34,4.46-52.18-10.24,1.72.41-9.51-144.04,33.58-13.17,169.82,10.6-1.4-.72,10.32,54.03-11.59,2.05-14.06c1.49-10.22,17.11-19.06,28.94-17.71.64,2.56,1.52,4.92,1.32,8.21l-5.78,95.94c-.91,15.18-13.91,21.51-28.62,22.04-2.02-4.23-2.39-8.85-2.08-13.9l2.23-36.52-10.72,1.67.31-9.19-54.53,11.82-2.85,52.23c-.53,9.68,1.08,19.06,4.67,27.69,6.31,15.57,17.34,16.93,20.5,20.21,8.31,8.62,24.23,11.95,34.89,9.62l44.23-9.67c16.21-4.88,30.08-14.24,40.22-27.74,9.23-12.3,14.96-26.52,16.2-41.81l2.31-28.57,167.54-32.64,176.11-34.82,179.84-36.17c17.67-3.55,34.86,1.89,46.74,15.14,2.51,2.81,5.7,4.09,9.61,3.08l45.34-11.64c45.63-10.37,91.13-18.34,137.58-24.06,5.17-.64,9.3-3.04,9.7-8.73.83-11.91,2.9-23.47,7.26-34.66,7.73-19.85,9.37-29.8-1.46-48.01-6.69-11.25-12.4-22.44-15.71-35.17-1.2-4.61-4.91-6.82-9.97-5.81-59.71,11.93-119.95,18.22-180.99,18.35-5.42.01-8.34,1.29-10.48,6.33-7.4,17.47-21.44,31.08-39.55,37.29-1.41.48-2.73-.02-3.4-.35-.61-.3-1.6-2.4-.9-2.68,12.45-5.04,25.62-11.89,31.69-22.61l8.88-16.06c2.76-4.99,7.06-6.63,12.74-6.62,61.14.11,121.41-6.32,181.23-18.36,7.56-1.52,13.84,2.29,15.68,9.6,3.31,13.18,9.51,24.66,16.57,36.15,6.9,11.24,8.86,23.71,4.86,36.16l-8.02,25c-5.01,15.6.45,32.41-14.52,34.72l-12,1.85-2.97,25.01c-.61,5.16-.33,10.27-3.42,14.6-4.83,6.76-12.45,10.93-20.82,11.88-4.9.55-8.66,3.52-9.42,8.88l-16.98,118.69-7.73,49.44c-8.73,37.49-36.03,67-73.27,77.15l-282.25,53.39-85.25,16.03-352.07,66.46c-26.09,4.93-52.43,1.51-76.34-8.83-17.07-7.38-47.6-25.03-57.98-38.13-13.53-17.07-11.77-40.55,1.91-57.33l33.62-41.22c5.45-6.68,9.93-13.67,12.55-22.61-18.01,7.74-33.93,16.11-49.4,26.79l-72.09,49.78-53.89,37.15c-32.27,22.25-69.57,40.16-109.05,41.01-41.38.9-78.03-19.81-99.56-54.83-25.14-40.9-38.41-99.08-46.82-147.1-8.54-48.78-12.24-97.49-9.4-146.9,3.13-54.32,17.58-113.86,54.08-154.98,20.14-22.68,46.64-37.68,76.19-44.75,40.39-9.66,84.77-3.43,124.4,8.47l48.42,14.53c49.96,15,96.07,16.46,144.15-5.13,38.71-17.39,72.33-42.42,110.04-60.9,39.12-19.16,92.4-35.7,133.94-21.1,9.83,3.46,18.6,8.98,24.34,17.56,5.54,8.27,4.86,19.66-2.66,26.11l-16.83,10.36c-20.55,12.64-36.94,31.1-44.72,54.05-6.01,17.73-6.42,36.25.28,53.36,5.74,14.29,17.59,24.42,33.27,25.73l454.38-81.03c1.34,4.9,1.45,10.1,2.42,14.77l69.83-21.07c-4.03-6.34-3.6-13.53,1.17-18.63,4.2-4.49,12.27-5.93,17.96-1.58,6.07,4.64,6.82,13.99,2.27,19.54-5.03,6.16-13.69,7.46-20.2,1.88l-70.8,21.68,1.77,15.42.02,1.96,1.95,20.51c.07.73.72,7.2.89,8.88l2.33,23.79c-3,1.02-5.41,1.41-7.67,1.31l-2.97-27.74-68.54,13.59c-1.06.21-1.68.17-1.93-.4-.17-.38-.03-1.09,1.02-1.3l69.17-13.42-2.19-23.83-70.37,12.69c.06-.62-.03-1.17-.14-1.54l70.32-12.9-1.83-15.31M1258.7,126.24c0-2.77-2.25-5.02-5.02-5.02s-5.02,2.25-5.02,5.02,2.25,5.02,5.02,5.02,5.02-2.25,5.02-5.02ZM279.98,270.63l-.65,10.14,55.07-12.16,3.19-40.42c.64-8.07,5.54-14.5,13.1-17.15,5.55-2.15,11.21-3.16,16.93-3.66.62,2.44,1.58,4.88,1.38,8.07l-3.24,51.7c-1.27,7.95-5.64,15.58-13.57,17.4l-32.76,7.52-2.75,50.68,10.44-1.8-.2,9.68,27-5.51c2.52-.51,4.89-.34,7.05-.17,1.18,3.15,1.69,6.58,1.49,10.53l-3.22,63.91c-1,19.76-13.51,25.43-31.08,26.61-1.33-4.16-2.13-8.16-1.91-12.61l2.2-44.08-10.59,1.85.25-9.65-55.3,11.94-2.65,52.93c-.62,12.39.79,24,5.58,35.38,4.34,9.33,12.13,16.27,21.63,19.47,7.39,8.18,18.98,11.49,30.79,10.44,17.61-1.56,34.56-5.36,51.48-10.65,16.53-5.17,30.76-15.16,40.99-28.94,10.63-14.31,14.83-30.96,15.69-48.72l3.92-80.87c.66-13.62-4.74-28.13-17.27-33.16l-5.1-4.63c14.35-10.39,22.98-27.16,24.15-45.31l4-61.93c1-15.43-5.73-34.9-20.02-40.1-11.39-14.33-32.75-15-50.86-10.83l-35.74,8.23c-19.88,4.58-36.8,17.16-47.16,34.77-6.47,11-9.38,23.08-10.13,35.85l-2.79,47.25,10.68-2.02ZM106.68,419.43c5.1,7.12,14.38,9.21,23.2,10.48,18.99.8,37.21-5.31,51.94-16.61l-3.19,61.86c-.82,15.97-14.62,24.55-30.63,24.53-.96-3.48-2.25-7.14-2.09-11.23l1.3-32.47-10.51,1.74.1-9.69-56.17,12.44-1.47,41.92c-.5,14.19,3.02,27.62,10.21,39.66,4.78,6.54,11.27,11.53,18.66,14.1,7.11,9.31,23.41,11.89,36.1,10.27,14.86-1.9,28.96-5.3,43.2-9.71,37.41-11.57,56.33-43.83,58.36-82.59l11.91-227.79c.57-10.86-.12-20.71-3.82-30.58-3.69-8.82-9.24-16.84-17.91-20.42-5.78-6.44-12.99-11.15-22.23-12.54-8.9-1.74-17.97-1.61-26.87.34l-35.19,7.73c-35.22,7.74-63.13,41.62-65.17,76.7l-5.92,101.86c-.59,10.07,1.26,19.63,4.81,28.62,3.95,10.67,11.64,17.37,21.39,21.35ZM1400.75,255.83c3.69-5.29,3.03-13.64.31-18.17-2.43-4.05-7.78-3.84-11.71-4.44l-1.34-10.81-8.87,1.28.45,11.16c-3.82,1.79-8.01,3.19-9.95,7.48-2.14,4.72-2.09,13.2,2.42,17.14,7.96,6.96,22.43,5.36,28.71-3.64ZM1344.74,263.88c2.37-4.67,1.27-11.61-.7-15.36-2.4-4.58-8.3-4.77-12.77-5.23l-1.32-10.91-9.25,1.75.84,10.62c-3.88,2.25-9.12,3.63-10.73,8.47-1.59,4.77-1.48,12.88,2.89,16.68,9.05,7.86,25.37,5.14,31.03-6.01ZM1282.06,281.11c7.53-6.17,5.08-19.61.46-22.78-2.85-1.95-6.28-2.27-10.25-2.25l-1.76-11.01-9.34,2.39.75,10.54c-8.86,1.84-12.56,8.21-11.27,16.5.77,4.93,2.61,8.94,7.83,10.71,7.77,2.64,16.88,1.39,23.57-4.09ZM1122.51,329.53c11.39-2.09,16.93-10.24,16.49-21.18-.2-5.04-.88-9.47-6.07-11.99l-9.93-4.84c-3.61-1.76-4.88-4.47-3.93-8.4.61-2.52,3.74-5.5,7.37-3.92,2.2.96,2.33,4.63,1.68,7.4l11.46-2.07-.16-7.54c-.1-4.88-4.39-8.31-9.42-8.39-6.28-.1-12.73.93-17.5,5.48-6.25,5.97-8.05,17.39-2.59,24.35,5.15,6.57,19.88,4.76,16.85,16.4-.87,3.34-5.39,6.59-9.08,3.87-1.57-1.15-1.01-5.17-.73-7.43-4.1-.22-7.37.71-11.31,1.74-.55,4.69-1.13,10.08,1.9,13.86,3.6,4.47,9.72,3.62,14.96,2.66ZM1089.32,295.89c8.09,1.3,11.6-11.65,10.41-21.62l-10.13,1.82-.48,10.89c.69-.27,2.87-.62,3.55.32l-3.34,8.59ZM1237.38,288.05l-37.74,2.99,6.33-17.2-52.87,23.62,31.53,1.46-5.8,16.4,58.54-27.27ZM1068.45,338.78l2.84-48.77,10.72-2.27.2-10.13-33.83,6.29-.61,10.66,11.14-1.44-2.91,48.14,12.45-2.48ZM1027.68,346.64l2.87-48.66,10.96-2.16.51-10.68-34.38,6.62-.5,10.55,11.42-1.92-2.89,48.47,12.01-2.24ZM974.12,356.83c12.6.57,23.77-6.04,24.43-17.64l1.91-33.42c.33-5.79-3.74-10.58-9.72-10.88-12.54-.63-24.42,5.53-25.11,17.95l-1.83,32.61c-.34,6.05,3.71,11.08,10.32,11.38ZM943.58,348.27c-.15,3.09-2.15,4.58-3.83,5.4-1.36.66-5.82.91-5.73-1.35l1.19-32.72c.09-2.52,1.7-4.07,2.95-4.83,1.68-1.02,5.02-1.52,6.21.31,1.71,2.63.72,6.17.52,9.24l11.75-2.2c.4-4.78,1.12-9.97-1.07-14.16-2.91-5.57-9.05-5.34-14.38-4.56-10.48,1.53-17.64,8.25-18.23,19.07l-1.69,30.91c-.22,3.93,1.41,7.5,3.9,9.46,6.16,4.84,24.8,2.01,29.05-10.14,1.56-4.47,1.19-9.3,1.52-13.93l-11.8,2.31-.36,7.19ZM896.45,372.46c11.14-1.64,17.21-9.59,17.33-20.12.07-6.17-1.57-11.33-7.7-14.11l-9.51-4.32c-3.34-1.52-3.7-5.34-2.62-8.81.74-2.38,4.15-4.87,7.6-3.01,2.1,1.13,1.97,4.83,1.42,7.52l10.8-1.84c1.27-4.22,1.44-9.82-1.53-13.49-3.32-4.1-8.76-3.55-13.34-3.05-10.66,1.19-17.41,8.81-17.53,19.35-.07,5.85,1.49,10.77,7.13,13.54l10.68,5.26c3.46,1.7,3.03,6.43,1.72,9.4-1.19,2.7-5.17,4.86-8.27,2.96-2.38-1.46-1.75-5.57-1.32-8.23l-11.2,2.01c-.89,4.82-1.19,10.17,1.86,13.93,3.48,4.29,9.22,3.78,14.48,3ZM1278.37,455.22l4.75-58.6,17.78,54.69,23.76-4.81-21.5-67.08,28-67.07-24.17,4.7-22.84,55.59,2.96-52.19-23.03,4.22-8.74,134.79,23.02-4.25ZM869.5,351.59l.53-10.3-14.34,2.42.81-12.81,17.05-3.3v-10.49s-28.75,5.38-28.75,5.38l-3.4,59.32,29.62-5.47.61-10.29-17.22,2.89.77-14.42,14.33-2.92ZM821.08,385.85l12.6-2.76-6.6-24.16c2.9-2.87,5.94-6.21,6.06-10.53l.36-12.57c-.4-6.04-5.56-9.64-11.53-8.62l-22.34,3.81-3.44,59.29,12.58-2.32,1.3-22.39c1.35-1.07,4.1-1.24,5.62-.85l5.39,21.11ZM1203.05,446.05c-.85-.95-1.8-2.88-1.66-4.81l5.46-78.7c.48-6.91,11.99-10.26,15.87-7.32.9.68,1.63,2.36,1.64,4.16l-1.14,20.38,22.5-4.3,1.47-26.96c.62-11.39-8.97-20.29-20.23-17.95l-22.39,4.65c-10.88,3.77-19.45,14.36-20.23,26.37l-5.9,91.38c-.71,10.96,8.21,18.98,18.6,18.3,8.43-.55,16.34-2.08,24.3-4.72,11.48-3.8,19.2-14.74,20.05-26.69l2.08-29.33-22.43,4.18-1.86,24.67c-.54,7.1-13.05,10.07-16.12,6.66ZM767.11,374.62l10.3-1.93c6.79-1.27,11.82-7.49,12.12-14.5l.55-12.83c.14-6.1-4.98-10.89-11.1-9.85l-22.09,3.78-3.34,59.28,12.19-2.21,1.36-21.75ZM1119.42,485.67c8.67-1.07,15.65-2.15,23.28-4.89,10.14-3.65,18.84-13.41,19.63-24.88l6.38-92.2c.38-5.49-2.59-10.91-5.64-13.86-3.61-3.5-8.93-5.09-14.02-4.09l-23.41,4.6c-10.63,3.55-19.19,13.8-19.99,25.59l-6.18,91.18c-.76,11.28,8.84,19.92,19.94,18.56ZM1063.16,495.82l23.52-4.6-11.83-52.55c7.88-5.52,12.76-13.71,13.31-23.23l2.16-36.97c.31-5.3-2.25-10.56-5.53-13.42-3.59-3.13-8.81-4.55-13.9-3.61l-42.38,7.86-8.67,134.65,22.77-4.16,3.33-51.28c2.23-1.23,4.39-1.56,7.03-1.77l10.18,49.09ZM717.8,398.89l-7.18-14.82,32.05-11.55-54.8-5.31,7.13,15.51-35.17,10.46,57.98,5.71ZM936.14,496.8c-.95-.98-1.86-2.92-1.73-4.81l5.26-78.78c.44-6.63,11.47-10.45,15.55-7.45,1.65,1.21,2.1,3.34,1.95,5.62l-1.26,18.93,22.61-4.34,1.44-27.43c.57-10.86-8.19-19.46-18.98-17.38l-22.94,4.44c-10.97,3.56-19.91,13.82-20.69,26.04l-5.87,92.3c-.71,11.21,9.22,19.14,19.36,18.07,7.94-.83,15.02-2.08,22.55-4.47,11.26-3.57,20.03-13.89,20.91-25.75l2.27-30.55-22.56,4.38-2,24.59c-.59,7.26-12.69,9.79-15.86,6.55ZM894.28,527.94l8.45-134.97-22.76,4.33-8.75,135.23,23.06-4.59ZM444.69,455.01c2.35,4.45,7.1,6.87,12.24,7.63,22.03,3.27,39.89-21.93,36.08-41.05-1.46-7.35-5.75-13.81-13.2-15.86-6.41-8.07-16.02-11.69-26.72-9-16.99,4.28-27.88,21.5-25.27,38.84,1.48,9.86,7.93,16.3,16.87,19.44ZM814.6,544.37c7.98-.65,15.23-1.87,22.33-4.18,11.31-3.67,19.91-14.08,20.66-25.95l1.8-28.71c.51-8.15-3.6-14.35-10.32-18.17l-20.99-11.93c-3.28-1.87-5.17-5.1-4.83-9.04l1.18-13.6c.42-4.88,11.57-8.49,15-5.32.78.72,1.46,2.33,1.38,4.01l-.8,17.31,21.74-3.98,1.24-24.35c.55-10.76-8.69-19.46-19.18-17.37l-21.91,4.36c-11.06,3.38-19.18,13.36-19.94,24.95l-1.64,24.98c-.53,8.1,3.8,14.4,10.45,18.36l22.5,13.42c2.52,1.5,3.76,4.33,3.56,7.27l-1.02,14.77c-.39,5.68-4.13,8.79-9.88,9.44-1.66.19-4.24.49-5.72-.66-1.02-.79-1.87-2.65-1.78-4.66l.9-19.92-22.12,4.16-1.44,26.82c-.57,10.53,7.46,18.9,18.83,17.97ZM763.31,554.01c10.82-3.86,18.56-14.03,19.21-24.94l1.76-29.62c.43-7.2-3.44-13.31-9.38-16.88l-21.88-13.12c-2.52-1.51-5.02-3.8-5.07-7.04-.08-4.98-.04-10.05,1.11-14.85,1.4-5.88,10.94-8.3,14.38-6.02,1.45.96,2.13,2.78,2.08,4.82l-.89,16.69,21.98-4.14,1.37-23.5c.3-5.17-1.72-10.33-5.02-13.46-3.56-3.38-8.79-5.29-13.95-4.44l-16.25,2.66c-14.76,2.41-25.69,14.15-26.57,29.23l-1.35,22.98c-.48,8.21,4.23,14.4,10.97,18.33l21.42,12.49c3.01,1.76,4.59,4.58,4.34,8.23l-.97,14.64c-.37,5.68-4.87,9.5-10.62,9.44-3.67.82-6.44-1.6-6.71-5.31l1.16-20.43-22.42,4.52-1.22,28.07c-.45,10.25,7.98,17.53,18.25,16.58,7.95-.74,16.07-1.98,24.26-4.9ZM685.66,543.75l1.54,24.72,23.31-4.66-12.69-131.17-31.59,6.12-29.81,139.9,23.38-4.45,4.92-26.32,20.95-4.14ZM629.78,557.66l-26.87,5.03,7.23-112.72-22.93,4.36-8.31,135.97,49.65-9.75,1.24-22.89ZM542.69,569.56c-.57,7.92-12.35,10.56-15.95,7.63-1.01-.82-2.21-2.74-2.07-4.83l5.27-79.83c.47-7.14,11.2-10.73,15.52-8.09,1.2.74,2.03,2.4,2.16,4.24l-1,21.45,22.61-4.58,1.32-28.77c.49-10.64-8.91-18.97-19.29-16.83l-24.01,4.95c-10.56,3.65-18.95,14.08-19.7,25.89l-5.9,92.79c-.73,11.49,8.48,19.66,19.39,18.73,8.63-.74,16.81-2.04,24.9-5.06,10.74-4,18.25-14.41,19.02-25.87l2.03-30-22.59,4.28-1.72,23.9ZM558.24,635.54l325.78-62.01,134.62-26.63,268.78-57.13-93.05,14.32-327.14,59.6-160.05,32.8c-50.46,12.42-100.15,23.49-148.93,39.06Z"/>
    <path class="st2" d="M1328.48,120.7c0,7.66-6.21,13.88-13.88,13.88s-13.88-6.21-13.88-13.88,6.21-13.88,13.88-13.88,13.88,6.21,13.88,13.88ZM1319.55,121.38c0-2.98-2.41-5.39-5.39-5.39s-5.39,2.41-5.39,5.39,2.41,5.39,5.39,5.39,5.39-2.41,5.39-5.39Z"/>
    <path class="st2" d="M1395.42,190.33c0,7.56-6.13,13.69-13.69,13.69s-13.69-6.13-13.69-13.69,6.13-13.69,13.69-13.69,13.69,6.13,13.69,13.69ZM1386.89,190.13c0-2.89-2.34-5.23-5.23-5.23s-5.23,2.34-5.23,5.23,2.34,5.23,5.23,5.23,5.23-2.34,5.23-5.23Z"/>
    <path class="st2" d="M1273.02,219.87c-3.61,6.68-10.8,9.14-17.03,6.96-6.77-2.37-9.7-10.02-7.49-17.15,2.43-7.86,10.7-11.75,17.87-8.99,7.39,2.85,10.71,11.68,6.65,19.19ZM1266.5,213.51c0-3.05-2.47-5.52-5.52-5.52s-5.52,2.47-5.52,5.52,2.47,5.52,5.52,5.52,5.52-2.47,5.52-5.52Z"/>
    <path class="st2" d="M1389.22,112.8c0,7.57-6.14,13.71-13.71,13.71s-13.71-6.14-13.71-13.71,6.14-13.71,13.71-13.71,13.71,6.14,13.71,13.71ZM1380.57,112.94c0-2.92-2.36-5.28-5.28-5.28s-5.28,2.36-5.28,5.28,2.36,5.28,5.28,5.28,5.28-2.36,5.28-5.28Z"/>
    <path class="st2" d="M1319.53,187.13h1.96c5.9-.09,11.18,3.17,13.25,8.14,2.62,6.28-1.14,12.19-1.75,13.09-3.08,4.57-7.92,6.81-13.41,6.21-4.41-.48-9.13-3.81-10.71-9-2.51-8.27,2.83-16.35,10.66-18.45ZM1327.45,200.47c0-3.16-2.56-5.72-5.72-5.72s-5.72,2.56-5.72,5.72,2.56,5.72,5.72,5.72,5.72-2.56,5.72-5.72Z"/>
    <circle class="st2" cx="912.78" cy="236.3" r="9.49"/>
    <circle class="st2" cx="1054.1" cy="209.73" r="9.69"/>
    <rect class="st2" x="1019.33" y="194.63" width="66.28" height="2.86" transform="translate(-18.1 191.43) rotate(-10.3)"/>
    <path class="st2" d="M942.09,246.1l-55.5,10.47c-.45-.44-.75-.92-.9-1.44l55.79-10.93c.74.66.73,1.3.61,1.9Z"/>
    <path class="st2" d="M956.63,214.88l-3.32.65c-.51.1-1.53-.9-1.51-1.61l54.71-10.76c.31.41.52,2.13.63,2.6l-50.51,9.12Z"/>
    <path class="st2" d="M874.76,258.83l-48.72,9.52-.06-1.71,47.08-9.24c1.21-.24,2.04.02,1.7,1.42Z"/>
    <path class="st2" d="M872.53,230.51l-48,8.95c-.55-.44-.78-1-.85-1.52l49.26-8.73c.33.35.09,1.2-.42,1.29Z"/>
    <path class="st2" d="M706.79,290.89l-46.21,8.67c-.36-.33-.65-.79-.71-1.2l45.13-9.03c1.22-.24,2.15.09,1.79,1.56Z"/>
    <path class="st2" d="M704.21,261.25l-43.15,8.08-.07-1.71,41.45-7.49c.58-.1,1.64.53,1.78,1.12Z"/>
    <path class="st2" d="M958.66,243.03c-8.33,1.67-4.4,1-6.4-.47l31.55-6.54c23.34-4.69,25.41-6,23.83-2.74l-48.97,9.75Z"/>
    <circle class="st2" cx="790.91" cy="259.55" r="9.44"/>
    <path class="st2" d="M811.8,241.99l-45.2,7.71-.69-1.17,44.09-8.22c1.22-.23,2.19.12,1.8,1.68Z"/>
    <path class="st2" d="M814.99,270.78l-46.08,8.61-.12-1.63,45.45-8.78c.7.51.92,1.05.75,1.8Z"/>
    <rect class="st2" x="706.68" y="229.73" width="6.23" height="91.33" transform="translate(-22.36 66.58) rotate(-5.29)"/>
    <path class="st2" d="M759.08,281.06l-42.46,7.65-.69-1.13,42.56-8.36c.67.58.78,1.12.59,1.84Z"/>
    <path class="st2" d="M751.07,252.96l-37.46,6.73c-.23-.31-.62-.84-.7-1.27,0,0,35.48-7.04,38.16-7.17,3.87-.17-.76-5.68,0,1.71Z"/>
    <path class="st2" d="M1295.15,188.04"/>
    <path class="st2" d="M1325.88,186.35"/>
    <path class="st2" d="M187.28,246.94c1.12,3.64,1.57,7.31,1.35,11.51l-4.06,77.33c-.98,18.73-16.28,30.16-33.31,29.02-1.48-5.49-1.92-11.05-1.55-17.45l4.46-77.78c.94-16.45,17.3-22.34,33.11-22.63Z"/>
    <path class="st2" d="M1058.1,423.84l-10.46,1.88,2.39-38.62,11.54-2.18c1.54-.29,2.91.27,3.69.83,1.28.92,2.07,2.76,1.94,4.64l-1.77,25.42c-.27,3.94-3.2,7.28-7.33,8.03Z"/>
    <path class="st2" d="M1140.45,453.41c-.51,7.45-11.88,10.31-15.74,7.84-1.31-.83-2.47-2.86-2.32-5.07l5.37-77.8c.61-8.86,12.79-10.92,16-8.41.99.78,2.27,2.4,2.11,4.64l-5.42,78.8Z"/>
    <path class="st2" d="M986.9,338.76c-.12,3.22-2.04,5.36-3.59,6.41s-7.01,1.71-6.92-.96l1.07-31.36c.1-2.81,1.77-4.93,3.35-6.14s7.36-1.97,7.26.6l-1.17,31.46Z"/>
    <path class="st2" d="M669.1,525.02l10.24-55.52c.14-.74-.04-3.32,1.21-2.93.76.23.69,2.2.13,2.87l3.49,52.78-15.07,2.8Z"/>
    <path class="st2" d="M776.62,360.74c-1.45,3.15-6.47,3.36-9,3.22l.5-15.84c2.73-1.34,5.95-2.06,9.46-1,.57,4.16,1.1,9.15-.96,13.63Z"/>
    <path class="st2" d="M819.74,351.74c-1.94,3.03-6.71,3.03-9.27,2.88l.7-15.21c3.06-1.08,6.22-1.71,9.73-.72.81,4.01,1.34,9.15-1.16,13.05Z"/>
    <line class="st2" x1="1319.75" y1="187.14" x2="1319.53" y2="187.13"/>
    <polygon class="st2" points="662.72 237.54 712.91 228.8 712.02 224.3 698.39 226.23 662.72 237.54"/>
    <polyline class="st2" points="749.44 248.37 753.55 248.37 753.55 251.52 749 250.91"/>
    <polygon class="st2" points="883.95 226.53 937.68 216.19 937.73 217.99 884 228.28 883.95 226.53"/>
    <path class="st2" d="M1325.88,183.19"/>
    <polygon class="st2" points="1172.72 152.87 1173.64 160.58 1244.09 135.93 1241.16 131.26 1172.72 152.87"/>
  </g>
</svg>